# xmcd
#
# Track frame offsets: 
#        150
#        17977
#        39975
#        58182
#        76705
#        91554
#        106704
#
# Disc length: 1687 seconds
#
# Revision: 0
# Processed by: cddbd v1.5.2PL0 Copyright (c) Steve Scherf et al.
# Submitted via: ExactAudioCopy v0.95b4
#
DISCID=41069507
DTITLE=Miki Ryvola a orchestr - Tunel jménem èas
DYEAR=2016
DGENRE=
TTITLE0=Tunel jménem èas
TTITLE1=To bude asi tím
TTITLE2=Vrbovy houstiny
TTITLE3=Do ptaèích ploutví a rybích køídel
TTITLE4=Pøedpovìï poèasí
TTITLE5=Blues blikavý lampy
TTITLE6=Záøí
EXTD=
EXTT0=
EXTT1=
EXTT2=
EXTT3=
EXTT4=
EXTT5=
EXTT6=
PLAYORDER=
